<svg width="150" height="25" viewBox="0 0 150 25" fill="none" xmlns="http://www.w3.org/2000/svg">
<path d="M0 0H10.2079V24.1405H0V22.7226H0.712505C1.98937 22.7226 2.84297 21.9748 2.84297 20.5921V3.54842C2.84297 2.16573 1.98937 1.41796 0.712505 1.41796H0V0ZM17.9608 11.2872V11.2167C20.6556 10.1514 22.5392 8.44425 22.5392 5.32615C22.5392 2.37737 20.3734 0 13.8409 0H12.1549V1.80595C13.2484 1.93999 14.37 2.64544 14.37 6.21502C14.37 9.48831 13.0932 10.5042 12.1549 10.7934V12.6769H12.3101C13.5517 12.6769 15.9644 13.1778 15.9644 17.6504C15.9644 21.8055 13.8339 22.5815 12.8039 22.5815C12.5711 22.5815 12.3454 22.5392 12.1479 22.4545V24.1405H12.9803C19.4422 24.1405 24.1264 22.0806 24.1264 17.1495C24.1405 14.3418 21.9748 12.035 17.9608 11.2872ZM118.078 7.63298H119.637L117.867 0H109.796V1.77774H110.833C113.923 1.77774 115.948 3.61896 118.078 7.63298ZM113.888 14.9132V15.6257H115.482V8.20439H113.888V8.9169C113.888 10.0174 113.211 11.0474 111.758 11.0474H109.796V12.7898H111.758C113.218 12.7828 113.888 13.8127 113.888 14.9132ZM110.833 22.3698C110.417 22.3698 110.071 22.2922 109.796 22.1512V24.1405H118.579L120.71 15.4423H119.151C116.801 19.8443 113.923 22.3698 110.833 22.3698ZM97.6273 1.41796H98.3398C99.4403 1.41796 100.47 2.20101 100.47 3.54842V20.5921C100.47 21.9748 99.4403 22.7226 98.3398 22.7226H97.6273V24.1405H107.842V0H97.6273V1.41796ZM132.152 20.5921V13.8833H132.159V0H121.951V1.41796H122.664C123.764 1.41796 124.794 2.09519 124.794 3.54842V20.5921C124.794 22.1512 123.764 22.7226 122.664 22.7226H121.951V24.1405H134.995V22.7226H134.29C133.182 22.7226 132.152 22.1159 132.152 20.5921ZM148.899 22.5462C147.764 22.5462 146.416 22.0877 143.785 16.9026L141.549 12.5359C143.573 11.7528 146.021 9.37544 146.021 6.14448C146.021 2.80769 143.856 0 138.318 0H134.113V1.77774C135.341 1.80595 136.865 2.49024 136.865 6.85698C136.865 10.871 135.193 11.9362 134.417 11.9362C134.311 11.9362 134.212 11.9292 134.113 11.9221V15.9291L135.658 19.3928C137.506 23.5479 140.237 24.5074 144.215 24.5074C147.764 24.5074 150 23.7949 150 23.7949V22.3769C149.993 22.3698 149.499 22.5462 148.899 22.5462ZM36.2672 16.9731V3.54842C36.2672 2.09519 37.2972 1.41796 38.3977 1.41796H39.1102V0H25.0858V1.41796H25.7983C26.8988 1.41796 27.9288 2.13046 27.9288 3.54842V16.5075C27.9288 21.7632 32.0134 24.8883 37.269 24.8883C38.045 24.8883 38.7998 24.8248 39.5193 24.6978V21.2482C37.4665 20.8461 36.2672 19.0895 36.2672 16.9731ZM41.7697 1.41796H42.4822C43.5827 1.41796 44.6127 2.09519 44.6127 3.54842V16.9661C44.6127 19.0331 43.4346 20.7685 41.4664 21.2129V24.1687C44.5281 23.0259 46.5668 20.5145 46.5668 16.7827V3.54842C46.5668 2.13046 47.5968 1.41796 48.6973 1.41796H49.4098V0H41.7697V1.41796ZM65.3388 1.41796V0H51.3145V1.41796H52.027C53.1275 1.41796 54.1575 2.13046 54.1575 3.54842V20.5921C54.1575 22.0806 53.1275 22.7226 52.027 22.7226H51.3145V24.1405H62.4959V20.4157V20.2676V3.54842C62.4959 2.09519 63.5258 1.41796 64.6263 1.41796H65.3388ZM64.5276 22.3698C64.5064 22.3698 64.4853 22.3698 64.457 22.3698V24.1476H71.5539L73.6843 15.4494H72.1253C69.9948 19.4563 67.6104 22.3698 64.5276 22.3698ZM87.7792 22.3698C87.7581 22.3698 87.7369 22.3698 87.7157 22.3698V24.1476H94.8126L96.943 15.4494H95.384C93.2465 19.4563 90.8691 22.3698 87.7792 22.3698ZM88.5976 1.41796V0H74.5732V1.41796H75.2857C76.3862 1.41796 77.4162 2.13046 77.4162 3.54842V20.5921C77.4162 22.0806 76.3862 22.7226 75.2857 22.7226H74.5732V24.1405H85.7546V20.4157V20.3452V3.54842C85.7546 2.09519 86.7846 1.41796 87.8851 1.41796H88.5976Z" fill="white"/>
</svg>
