<svg width="24" height="24" viewBox="0 0 24 24" fill="none" xmlns="http://www.w3.org/2000/svg">
<path d="M23.9313 10.3612C23.2774 4.0711 17.2803 -0.676135 10.9429 0.0802833C2.55005 1.08216 -2.12421 9.94044 1.86099 17.3076C2.04708 17.6532 2.06553 17.9321 1.93811 18.2961C1.29095 20.1513 0.670625 22.0181 0 24.0001C0.234719 23.9367 0.37052 23.9066 0.504645 23.8649C2.33545 23.2855 4.16626 22.7127 5.99204 22.1166C6.35585 21.998 6.64757 22.0264 6.99127 22.1968C9.18924 23.2821 11.5197 23.6729 13.9406 23.2938C20.3384 22.2969 24.5969 16.7599 23.9313 10.3612ZM14.4184 21.2116C11.8734 21.7643 9.46923 21.3953 7.22766 20.0845C6.90073 19.8941 6.63416 19.8858 6.29885 19.9976C5.2577 20.3433 4.20817 20.6689 3.0547 21.0362C3.42522 19.9292 3.74712 18.934 4.09752 17.9471C4.21656 17.6115 4.21991 17.356 4.01034 17.0304C0.124066 10.9891 3.67838 3.18611 10.8138 2.07569C15.919 1.28087 20.8816 4.79078 21.8775 9.90036C22.87 14.9949 19.4951 20.1112 14.4184 21.2116Z" fill="white"/>
<path d="M17.9532 14.4774C17.2792 14.1501 16.6119 13.8028 15.9614 13.4304C15.4903 13.1599 15.155 13.2234 14.8549 13.6809C14.6856 13.9381 14.4341 14.1418 14.2446 14.3889C13.973 14.7429 13.6913 14.7913 13.2739 14.5926C11.822 13.8997 10.6568 12.8995 9.79669 11.5486C9.26355 10.712 9.24343 10.7003 9.91908 9.99734C10.3868 9.50976 10.5545 9.0322 10.2242 8.38599C9.961 7.87336 9.77993 7.31398 9.60724 6.76127C9.44294 6.23529 9.16798 5.9197 8.59292 6.03491C8.03798 5.92137 7.64231 6.14011 7.29191 6.51748C6.46704 7.40582 6.16861 8.43274 6.40836 9.61329C6.70176 11.0643 7.58698 12.2031 8.44035 13.352C10.0716 15.5477 12.2814 16.8869 14.9303 17.5164C16.4811 17.8855 18.0856 16.7984 18.3354 15.2873C18.3958 14.9149 18.3237 14.6577 17.9532 14.4774Z" fill="white"/>
</svg>
